<svg width="744" height="120" viewBox="0 0 744 120" fill="none" xmlns="http://www.w3.org/2000/svg">
<path d="M205 109.8H231.1V77.4H268V52.2H231.1V36H277V10.8H205V109.8Z" fill="#0F172A"/>
<path d="M311.151 60.3C311.151 45.9 322.851 34.2 337.251 34.2C351.651 34.2 363.351 45.9 363.351 60.3C363.351 74.7 351.651 86.4 337.251 86.4C322.851 86.4 311.151 74.7 311.151 60.3ZM285.051 60.3C285.051 88.2 308.451 111.6 337.251 111.6C366.051 111.6 389.451 88.2 389.451 60.3C389.451 32.4 366.051 9 337.251 9C308.451 9 285.051 32.4 285.051 60.3Z" fill="#0F172A"/>
<path d="M430.788 54V34.2H447.888C455.088 34.2 459.587 38.7 459.587 44.1C459.587 49.5 455.088 54 447.888 54H430.788ZM404.688 109.8H430.788V77.4H443.388L462.288 109.8H491.088L468.588 72C468.588 72 485.688 64.8 485.688 44.1C485.688 25.2 471.288 10.8 448.788 10.8H404.688V109.8Z" fill="#0F172A"/>
<path d="M571.195 72C568.495 79.2 561.295 86.4 549.595 86.4C535.195 86.4 523.495 74.7 523.495 60.3C523.495 45.9 535.195 34.2 549.595 34.2C562.195 34.2 570.295 42.3 572.095 48.6L597.295 45.9C591.895 25.2 575.695 9 549.595 9C520.795 9 497.395 32.4 497.395 60.3C497.395 88.2 520.795 111.6 549.595 111.6C575.695 111.6 591.895 95.4 597.295 74.7L571.195 72Z" fill="#0F172A"/>
<path d="M610.879 109.8H636.979V10.8H610.879V109.8Z" fill="#0F172A"/>
<path d="M682.858 54V34.2H699.958C707.158 34.2 711.658 38.7 711.658 44.1C711.658 49.5 707.158 54 699.958 54H682.858ZM656.758 109.8H682.858V77.4H695.458L714.358 109.8H743.158L720.658 72C720.658 72 737.758 64.8 737.758 44.1C737.758 25.2 723.358 10.8 700.858 10.8H656.758V109.8Z" fill="#0F172A"/>
<path fill-rule="evenodd" clip-rule="evenodd" d="M49.1319 101.603L58 117.333C58 117.333 63.3333 118.667 80 118.667C93.3333 118.667 97.3333 117.333 97.3333 117.333L68.8531 66.1852L49.1319 101.603ZM41.4901 17.0436L21.4754 52.5458L2 18.0001C2 18.0001 3.95369 13.3334 14.6667 6.66673C25.3796 6.10352e-05 32 6.10352e-05 32 6.10352e-05L41.4901 17.0436Z" fill="#94A3B8"/>
<path fill-rule="evenodd" clip-rule="evenodd" d="M106.201 17.0637L97.3333 1.33333C97.3333 1.33333 93.3333 0 80 0C63.3333 0 58 1.33333 58 1.33333L86.4802 52.4815L106.201 17.0637ZM113.843 101.623L123.333 118.667C123.333 118.667 129.954 118.667 140.667 112C151.379 105.333 153.333 100.667 153.333 100.667L133.858 66.1209L113.843 101.623Z" fill="#94A3B8"/>
<path d="M97.3333 117.333L153.333 18.0001C153.333 18.0001 151.379 13.3334 140.667 6.66676C129.954 9.15527e-05 123.333 9.15527e-05 123.333 9.15527e-05L58 117.333C58 117.333 63.3333 118.667 80 118.667C93.3333 118.667 97.3333 117.333 97.3333 117.333Z" fill="#0F172A"/>
<path d="M97.3333 1.33333L32 118.667C32 118.667 25.3796 118.667 14.6667 112C3.95369 105.333 2 100.667 2 100.667L58 1.33333C58 1.33333 63.3333 0 80 0C93.3333 0 97.3333 1.33333 97.3333 1.33333Z" fill="#0F172A"/>
</svg>
